####
#
# OBJ File Generated by Meshlab
#
####
# Object rock_new.obj
#
# Vertices: 98
# Faces: 192
#
####
mtllib ./rock_new.obj.mtl

vn 0.246699 -0.918211 -0.309885
v 0.448465 -0.190568 -0.507584
vn 0.302093 -0.774009 0.556462
v 0.368157 0.095824 0.526078
vn -0.341798 -0.431659 0.834772
v -0.526044 0.087404 0.470296
vn 0.230007 -0.842165 -0.487704
v -0.346220 -0.159285 -0.390575
vn 0.695928 0.567075 -0.440579
v 0.651877 0.397580 -0.630452
vn 0.471218 0.726747 0.499792
v 0.222003 0.688370 0.604719
vn -0.339193 0.908038 0.245793
v -0.509888 0.706539 0.389508
vn -0.301028 0.673143 -0.675471
v -0.340931 0.387460 -0.864297
vn 0.586221 -0.769899 0.252191
v 0.522704 -0.094726 -0.052077
vn -0.211900 -0.976788 -0.031368
v 0.033632 -0.132642 -0.370412
vn 0.719922 -0.470652 -0.510097
v 0.600181 0.108758 -0.658580
vn -0.086203 -0.693269 0.715505
v -0.077281 0.097367 0.609425
vn 0.648519 0.158042 0.744612
v 0.577634 0.403303 0.609649
vn -0.122108 -0.970753 0.206708
v -0.547316 -0.137749 -0.025783
vn -0.913591 0.185607 0.361804
v -0.824030 0.325043 0.357180
vn -0.479522 -0.523507 -0.704272
v -0.592864 0.092264 -0.608851
vn 0.596713 0.792192 -0.127927
v 0.487716 0.609653 -0.131809
vn 0.226509 0.633160 -0.740136
v 0.052629 0.348614 -0.907749
vn -0.217706 0.688158 0.692129
v -0.172424 0.773205 0.694532
vn -0.344714 0.914551 -0.211586
v -0.588547 0.632368 -0.157307
vn -0.071003 -0.985216 0.155908
v -0.007895 -0.158932 0.009709
vn -0.027301 0.953138 -0.301303
v 0.023054 0.623002 -0.290940
vn 0.963461 0.254246 -0.084277
v 0.587591 0.356376 -0.004244
vn -0.189101 0.058710 0.980201
v 0.130038 0.388997 0.604993
vn -0.999204 0.010020 0.038622
v -0.824440 0.200195 -0.084455
vn -0.117001 -0.767865 -0.629836
v -0.099912 -0.027927 -0.785959
vn 0.453297 -0.813367 0.364631
v 0.504433 -0.002769 0.243467
vn 0.010701 -0.928451 -0.371301
v -0.160729 -0.116501 -0.332496
vn 0.873314 -0.147117 -0.464412
v 0.692913 0.244150 -0.672761
vn -0.233510 -0.664058 0.710282
v -0.268937 0.115454 0.566267
vn 0.320597 0.386132 0.864939
v 0.468161 0.505507 0.606590
vn -0.043503 -0.998987 0.011485
v -0.431182 -0.172944 -0.232860
vn -0.646829 0.455273 0.611832
v -0.640794 0.579571 0.479984
vn -0.549090 -0.123049 -0.826655
v -0.487264 0.270497 -0.808388
vn 0.378496 0.924608 0.042904
v 0.404229 0.764225 0.269449
vn 0.166913 0.161409 -0.972670
v -0.087496 0.331601 -1.014933
vn -0.460586 0.857146 0.230567
v -0.305142 0.721057 0.500340
vn -0.458398 0.782474 -0.421433
v -0.678011 0.513824 -0.501978
vn 0.483032 -0.870004 0.098859
v 0.521011 -0.171570 -0.285226
vn -0.076905 -0.948716 -0.306632
v 0.234474 -0.196863 -0.479510
vn 0.421728 -0.456758 -0.783274
v 0.540636 -0.075294 -0.645327
vn 0.080506 -0.692951 0.716476
v 0.121793 0.079588 0.594418
vn 0.449921 -0.406076 0.795408
v 0.507294 0.252122 0.613033
vn -0.276719 -0.856125 0.436436
v -0.577865 -0.048369 0.249605
vn -0.735826 -0.437795 0.516620
v -0.785671 0.149241 0.359535
vn -0.231210 -0.767756 -0.597573
v -0.531638 -0.090196 -0.501116
vn 0.638093 0.754431 -0.153853
v 0.615977 0.515399 -0.439208
vn 0.287407 0.643239 -0.709676
v 0.385227 0.381857 -0.768975
vn -0.086403 0.386968 0.918036
v -0.032639 0.757468 0.732665
vn -0.424003 0.903484 -0.062758
v -0.588215 0.700864 0.153722
vn -0.040302 -0.975454 0.216485
v -0.238112 -0.137365 0.015968
vn 0.122298 -0.957472 0.261324
v 0.240212 -0.164965 -0.014975
vn -0.216408 -0.971241 -0.099294
v 0.086397 -0.157485 -0.234430
vn -0.055899 -0.920562 0.386576
v -0.053137 -0.058761 0.322735
vn -0.046701 0.982647 -0.179513
v -0.099005 0.737260 0.136343
vn 0.007300 0.916651 -0.399623
v 0.031499 0.494465 -0.640240
vn 0.104699 0.961750 -0.253130
v 0.305750 0.618772 -0.308979
vn -0.043402 0.962207 -0.268838
v -0.301672 0.649284 -0.172529
vn 0.959293 0.258827 0.112981
v 0.633730 0.430841 0.409910
vn 0.985451 -0.144846 0.088918
v 0.633554 0.204911 -0.408662
vn 0.991242 -0.129353 0.026605
v 0.634449 0.108814 -0.060917
vn 0.940542 0.335247 -0.054690
v 0.525456 0.542026 -0.037209
vn -0.434086 -0.110302 0.894093
v -0.521785 0.355489 0.574436
vn 0.126701 0.214977 0.968366
v 0.333515 0.393192 0.646882
vn -0.073602 0.065330 0.995146
v -0.067560 0.263018 0.709387
vn -0.006300 -0.294481 0.955636
v -0.033435 0.515012 0.694848
vn -0.898987 -0.398239 -0.182285
v -0.879948 0.064684 -0.390667
vn -0.993657 0.112260 0.006588
v -0.823241 0.281116 0.164778
vn -0.739460 -0.673106 0.011235
v -0.774221 -0.106265 -0.104655
vn -0.818912 0.572353 -0.042368
v -0.741527 0.523110 -0.110912
vn -0.432213 -0.499250 -0.750960
v -0.387729 0.066570 -0.741090
vn 0.225912 -0.634147 -0.739474
v 0.278158 0.031493 -0.780607
vn 0.150802 -0.224281 -0.962786
v 0.076613 0.178613 -0.991690
vn -0.131605 -0.949833 -0.283720
v -0.090258 -0.123913 -0.605145
vn -0.085503 -0.904134 0.418606
v -0.315460 -0.035956 0.315001
vn -0.093598 0.988775 -0.116461
v -0.338960 0.730779 0.172783
vn 0.752427 0.634729 0.175990
v 0.557965 0.639150 0.342286
vn -0.364615 0.211949 0.906716
v -0.472255 0.533261 0.581834
vn -0.900754 0.304453 -0.309759
v -0.859720 0.356843 -0.452859
vn -0.109098 -0.905446 -0.410201
v -0.375524 -0.067453 -0.562397
vn 0.016800 -0.952245 -0.304871
v -0.179844 -0.180590 -0.261684
vn -0.012200 -0.999826 0.014085
v 0.274029 -0.219365 -0.283153
vn 0.122199 -0.913731 0.387509
v 0.191727 -0.078094 0.295283
vn -0.011700 0.993715 -0.111327
v 0.171391 0.771304 0.247816
vn 0.178294 0.900060 -0.397623
v 0.400782 0.556599 -0.512866
vn -0.044302 0.930084 -0.364665
v -0.272089 0.514166 -0.591145
vn 0.921640 -0.313330 0.228920
v 0.673833 0.184763 0.338083
vn 0.919937 -0.347347 -0.181842
v 0.661896 -0.044758 -0.430422
vn 0.993359 0.061426 0.097287
v 0.711771 0.346593 -0.453975
vn -0.326287 -0.255476 0.910093
v -0.353347 0.259808 0.628605
vn 0.149298 -0.246499 0.957574
v 0.247137 0.248323 0.658666
vn 0.114702 0.004997 0.993387
v 0.262094 0.510227 0.597097
vn -0.467211 -0.821637 -0.326538
v -0.673218 -0.138594 -0.381563
vn -0.791348 -0.535312 0.295313
v -0.775190 0.076865 0.231994
vn -0.824710 0.552457 0.121014
v -0.717160 0.585431 0.235187
vn -0.218113 -0.414460 -0.883544
v -0.131599 0.230517 -0.945416
vn 0.426928 -0.077080 -0.900995
v 0.401019 0.221730 -0.846014
vn 0.071999 -0.751492 -0.655802
v 0.256356 -0.093467 -0.594628
# 98 vertices, 0 vertices normals


usemtl material_0
vt 0.058285 0.569867
vt 0.082613 0.506661
vt 0.152906 0.498683
f 30/1/30 3/2/3 44/3/44
vt 0.206316 0.378186
vt 0.155630 0.402329
vt 0.099783 0.387655
f 50/4/50 7/5/7 37/6/37
vt 0.854473 0.349296
vt 0.794976 0.248970
vt 0.870663 0.174892
f 35/7/35 6/8/6 31/9/31
vt 0.944083 0.694636
vt 0.905653 0.682602
vt 0.916733 0.604517
f 37/10/37 7/11/7 33/12/33
vt 0.336809 0.082005
vt 0.369246 0.000842
vt 0.489191 0.000000
f 79/13/79 38/14/38 8/15/8
vt 0.512673 0.310590
vt 0.481603 0.323059
vt 0.447322 0.276247
f 28/16/28 4/17/4 46/18/46
vt 0.276846 0.583529
vt 0.215363 0.578539
vt 0.223692 0.502410
f 81/19/81 51/20/51 14/21/14
vt 0.288525 0.695621
vt 0.226456 0.694739
vt 0.220811 0.635843
f 82/22/82 52/23/52 21/24/21
vt 0.149628 0.688747
vt 0.060049 0.668982
vt 0.053708 0.620010
f 83/25/83 42/26/42 12/27/12
vt 0.115533 0.299946
vt 0.042023 0.402498
vt 0.011393 0.383384
f 55/28/55 19/29/19 49/30/49
vt 0.133867 0.094672
vt 0.226136 0.127633
vt 0.165692 0.199396
f 85/31/85 56/32/56 22/33/22
vt 0.273683 0.187557
vt 0.335575 0.267841
vt 0.258354 0.321530
f 86/34/86 38/35/38 20/36/20
vt 0.422948 0.654063
vt 0.520455 0.684734
vt 0.477461 0.726331
f 87/37/87 59/38/59 13/39/13
vt 0.422729 0.459207
vt 0.529375 0.479105
vt 0.539575 0.580737
f 88/40/88 60/41/60 23/42/23
vt 0.744126 0.814485
vt 0.672331 0.787452
vt 0.683844 0.711964
f 89/43/89 47/44/47 17/45/17
vt 0.016271 0.536299
vt 0.006598 0.482318
vt 0.054401 0.402498
f 90/46/90 63/47/63 15/48/15
vt 0.855242 0.125920
vt 0.818683 0.137473
vt 0.786060 0.070157
f 64/49/64 24/50/24 65/51/65
vt 0.829103 0.182611
vt 0.720806 0.251159
vt 0.693981 0.268226
f 92/52/92 49/53/49 19/54/19
vt 0.348488 0.225548
vt 0.431026 0.176751
f 67/55/67 16/56/16 46/18/46
vt 0.821728 0.494375
vt 0.758928 0.488146
vt 0.747834 0.361119
f 68/57/68 25/58/25 69/59/69
vt 0.853441 0.628842
vt 0.844101 0.700647
vt 0.766741 0.707183
f 95/60/95 50/61/50 20/62/20
vt 0.554998 0.057463
vt 0.491069 0.166304
f 96/63/96 71/64/71 16/56/16
vt 0.661203 0.071636
vt 0.642437 0.169965
vt 0.565426 0.199969
f 97/65/97 72/66/72 26/67/26
vt 0.619708 0.321108
vt 0.560004 0.310321
vt 0.556413 0.271543
f 40/68/40 10/69/10 74/70/74
vt 0.137636 0.563411
f 75/71/75 44/3/44 14/21/14
vt 0.140662 0.629249
f 21/24/21 54/72/54 75/71/75
f 12/27/12 30/1/30 75/71/75
vt 0.155028 0.344089
f 76/73/76 37/6/37 19/29/19
vt 0.206193 0.274302
f 22/33/22 58/74/58 76/73/76
f 58/74/58 20/36/20 50/4/50
vt 0.896175 0.282885
vt 0.907061 0.133559
f 77/75/77 31/9/31 13/76/13
vt 0.622627 0.581780
vt 0.617335 0.678426
f 62/77/62 77/78/77 59/38/59
vt 0.662917 0.562066
vt 0.672331 0.661064
f 17/79/17 35/80/35 77/78/77
vt 0.949240 0.587705
vt 0.869574 0.490922
f 78/81/78 33/12/33 15/82/15
vt 0.791582 0.866218
vt 0.744126 0.821215
vt 0.752056 0.707183
f 24/83/24 66/84/66 78/85/78
vt 0.999879 0.706758
f 19/86/19 37/10/37 78/81/78
vt 0.460672 0.063535
f 67/55/67 79/13/79 34/87/34
vt 0.766456 0.640000
vt 0.672331 0.596657
vt 0.677773 0.459778
f 70/88/70 79/89/79 67/90/67
vt 0.674914 0.687648
f 20/62/20 38/91/38 79/89/79
vt 0.485748 0.254952
f 71/64/71 80/92/80 46/18/46
f 74/70/74 80/92/80 71/64/71
vt 0.336809 0.833560
vt 0.336920 0.785916
vt 0.384519 0.726331
f 10/93/10 28/94/28 80/95/80
vt 0.506205 0.350977
vt 0.448079 0.354288
f 28/16/28 81/96/81 32/97/32
vt 0.559475 0.342029
f 53/98/53 81/96/81 28/16/28
vt 0.266533 0.646047
f 53/99/53 21/24/21 51/20/51
vt 0.609960 0.361119
f 40/68/40 82/100/82 53/98/53
vt 0.278588 0.749240
vt 0.320949 0.673747
f 39/101/39 82/22/82 40/102/40
vt 0.218381 0.752553
f 39/101/39 9/103/9 52/23/52
f 52/23/52 83/25/83 54/72/54
vt 0.143231 0.752483
f 9/103/9 27/104/27 83/25/83
vt 0.069266 0.722735
f 27/104/27 2/105/2 42/26/42
vt 0.808347 0.361119
f 35/7/35 84/106/84 49/53/49
vt 0.116225 0.149680
vt 0.046020 0.277128
vt 0.000000 0.241327
f 57/107/57 84/108/84 35/109/35
f 57/107/57 22/33/22 55/28/55
vt 0.056221 0.145884
f 85/31/85 57/107/57 17/110/17
vt 0.187902 0.035191
vt 0.085645 0.065345
f 48/111/48 85/31/85 47/112/47
vt 0.273048 0.064123
f 18/113/18 56/32/56 85/31/85
f 56/32/56 86/34/86 58/74/58
vt 0.316518 0.068429
f 36/114/36 86/34/86 56/32/56
vt 0.336809 0.140426
f 36/114/36 8/115/8 38/35/38
vt 0.340137 0.610197
vt 0.404599 0.713241
f 27/116/27 87/37/87 43/117/43
vt 0.339988 0.536299
vt 0.439840 0.553878
f 9/118/9 61/119/61 87/37/87
f 61/119/61 23/42/23 59/38/59
f 88/40/88 61/119/61 9/118/9
vt 0.429528 0.400325
vt 0.336833 0.476818
f 41/120/41 88/40/88 39/121/39
vt 0.517650 0.412671
f 41/120/41 11/122/11 60/41/60
vt 0.604166 0.482239
f 60/41/60 89/123/89 62/77/62
vt 0.586459 0.423461
f 11/122/11 29/124/29 89/123/89
vt 0.646477 0.441109
vt 0.670954 0.491413
f 29/124/29 5/125/5 47/126/47
vt 0.090851 0.431859
f 30/1/30 90/46/90 45/127/45
vt 0.000000 0.608449
f 12/27/12 65/128/65 90/46/90
vt 0.694133 0.143704
f 65/51/65 24/50/24 63/129/63
vt 0.012308 0.682984
f 91/130/91 65/128/65 12/27/12
vt 0.019832 0.742597
f 43/131/43 91/130/91 42/26/42
vt 0.857058 0.070133
f 13/76/13 64/49/64 91/132/91
vt 0.758736 0.168010
f 64/49/64 92/52/92 66/133/66
f 13/76/13 31/9/31 92/52/92
f 31/9/31 6/8/6 49/53/49
vt 0.408067 0.318081
f 93/134/93 46/18/46 4/17/4
vt 0.232244 0.440506
vt 0.291247 0.454530
vt 0.270084 0.523882
f 69/135/69 93/136/93 32/137/32
vt 0.685316 0.388716
f 25/58/25 67/90/67 93/138/93
vt 0.130148 0.436240
f 44/3/44 94/139/94 69/135/69
f 3/2/3 45/127/45 94/139/94
vt 0.834672 0.401576
f 15/82/15 68/57/68 94/140/94
f 95/60/95 70/88/70 25/58/25
f 33/12/33 95/60/95 68/57/68
f 33/12/33 7/11/7 50/61/50
vt 0.563922 0.000091
f 36/141/36 96/63/96 34/87/34
vt 0.582099 0.007382
vt 0.608937 0.072162
f 18/142/18 73/143/73 96/63/96
f 73/143/73 26/67/26 71/64/71
vt 0.207942 0.000000
vt 0.293309 0.025246
f 48/111/48 97/144/97 73/145/73
vt 0.579472 0.365264
f 5/125/5 29/124/29 97/146/97
vt 0.477201 0.361119
f 29/124/29 11/122/11 72/147/72
vt 0.628288 0.255903
f 72/66/72 98/148/98 74/70/74
vt 0.693981 0.150197
vt 0.693822 0.237100
f 11/149/11 41/150/41 98/148/98
vt 0.668575 0.311882
f 41/150/41 1/151/1 40/68/40
f 75/71/75 30/1/30 44/3/44
f 76/73/76 50/4/50 37/6/37
f 77/75/77 35/7/35 31/9/31
f 78/81/78 37/10/37 33/12/33
f 34/87/34 79/13/79 8/15/8
f 80/92/80 28/16/28 46/18/46
f 32/137/32 81/19/81 14/21/14
f 53/99/53 82/22/82 21/24/21
f 54/72/54 83/25/83 12/27/12
f 84/108/84 55/28/55 49/30/49
f 57/107/57 85/31/85 22/33/22
f 58/74/58 86/34/86 20/36/20
f 43/117/43 87/37/87 13/39/13
f 61/119/61 88/40/88 23/42/23
vt 0.731678 0.707183
f 62/152/62 89/43/89 17/45/17
f 45/127/45 90/46/90 15/48/15
f 91/132/91 64/49/64 65/51/65
f 66/133/66 92/52/92 19/54/19
f 93/134/93 67/55/67 46/18/46
f 94/140/94 68/57/68 69/59/69
f 70/88/70 95/60/95 20/62/20
f 34/87/34 96/63/96 16/56/16
f 73/143/73 97/65/97 26/67/26
f 98/148/98 40/68/40 74/70/74
f 51/20/51 75/71/75 14/21/14
f 51/20/51 21/24/21 75/71/75
f 54/72/54 12/27/12 75/71/75
f 55/28/55 76/73/76 19/29/19
f 55/28/55 22/33/22 76/73/76
f 76/73/76 58/74/58 50/4/50
vt 0.934356 0.187628
f 59/153/59 77/75/77 13/76/13
f 23/42/23 62/77/62 59/38/59
f 62/77/62 17/79/17 77/78/77
vt 0.939564 0.506329
f 63/154/63 78/81/78 15/82/15
vt 0.791426 0.711743
f 63/155/63 24/83/24 78/85/78
vt 1.000000 0.606532
f 66/156/66 19/86/19 78/81/78
f 16/56/16 67/55/67 34/87/34
f 25/58/25 70/88/70 67/90/67
f 70/88/70 20/62/20 79/89/79
f 16/56/16 71/64/71 46/18/46
f 26/67/26 74/70/74 71/64/71
vt 0.387737 0.801509
f 74/157/74 10/93/10 80/95/80
f 4/17/4 28/16/28 32/97/32
f 10/69/10 53/98/53 28/16/28
f 81/19/81 53/99/53 51/20/51
f 10/69/10 40/68/40 53/98/53
vt 0.324683 0.722893
f 1/158/1 39/101/39 40/102/40
f 82/22/82 39/101/39 52/23/52
f 21/24/21 52/23/52 54/72/54
f 52/23/52 9/103/9 83/25/83
f 83/25/83 27/104/27 42/26/42
f 6/8/6 35/7/35 49/53/49
f 17/110/17 57/107/57 35/109/35
f 84/108/84 57/107/57 55/28/55
f 47/112/47 85/31/85 17/110/17
vt 0.116277 0.014773
f 5/159/5 48/111/48 47/112/47
f 48/111/48 18/113/18 85/31/85
f 22/33/22 56/32/56 58/74/58
f 18/113/18 36/114/36 56/32/56
f 86/34/86 36/114/36 38/35/38
vt 0.336809 0.674909
f 2/160/2 27/116/27 43/117/43
f 27/116/27 9/118/9 87/37/87
f 87/37/87 61/119/61 59/38/59
f 39/121/39 88/40/88 9/118/9
vt 0.353162 0.419686
f 1/161/1 41/120/41 39/121/39
f 88/40/88 41/120/41 60/41/60
f 23/42/23 60/41/60 62/77/62
f 60/41/60 11/122/11 89/123/89
f 89/123/89 29/124/29 47/126/47
f 3/2/3 30/1/30 45/127/45
f 30/1/30 12/27/12 90/46/90
vt 0.736508 0.092307
f 90/162/90 65/51/65 63/129/63
f 42/26/42 91/130/91 12/27/12
f 2/105/2 43/131/43 42/26/42
vt 0.913859 0.076969
f 43/163/43 13/76/13 91/132/91
f 24/50/24 64/49/64 66/133/66
f 64/49/64 13/76/13 92/52/92
f 92/52/92 31/9/31 49/53/49
f 32/97/32 93/134/93 4/17/4
f 14/21/14 69/135/69 32/137/32
f 69/59/69 25/58/25 93/138/93
f 14/21/14 44/3/44 69/135/69
f 44/3/44 3/2/3 94/139/94
vt 0.867108 0.417288
f 45/164/45 15/82/15 94/140/94
f 68/57/68 95/60/95 25/58/25
f 15/82/15 33/12/33 68/57/68
f 95/60/95 33/12/33 50/61/50
f 8/15/8 36/141/36 34/87/34
f 36/141/36 18/142/18 96/63/96
f 96/63/96 73/143/73 71/64/71
f 18/113/18 48/111/48 73/145/73
vt 0.639569 0.392860
f 48/165/48 5/125/5 97/146/97
f 97/146/97 29/124/29 72/147/72
f 26/67/26 72/66/72 74/70/74
f 72/66/72 11/149/11 98/148/98
f 98/148/98 41/150/41 40/68/40
# 192 faces, 165 coords texture

# End of File
